<svg fill="none" height="48" viewBox="0 0 48 48" width="48" xmlns="http://www.w3.org/2000/svg"><path clip-rule="evenodd" d="m43.9851 24.7787c.0099-.2583.0149-.5179.0149-.7787 0-4-3.9635-8.3925-7.5-12-3.6298-3.70272-8.5-8-12.5-8-.9492 0-1.883.06613-2.797.19403-.0628.00879-.1255.01787-.1881.02724-9.6298 1.44112-17.0149 9.74753-17.0149 19.77873 0 11.0457 8.9543 20 20 20 10.7849 0 19.576-8.5365 19.9851-19.2213zm-4.0143.1953c-.5033 8.383-7.4613 15.026-15.9708 15.026-8.8366 0-16-7.1634-16-16 0-7.9024 5.7289-14.46671 13.2601-15.76631 1.492 9.17801 9.2306 16.25971 18.7107 16.74031z" fill="#1c93e3" fill-rule="evenodd"/></svg>